<svg xmlns="http://www.w3.org/2000/svg" width="128.688" height="47.406" viewBox="0 0 128.688 47.406">
  <defs>
    <style>
      .cls-1 {
        fill: #fff;
        fill-rule: evenodd;
      }
    </style>
  </defs>
  <path class="cls-1" d="M406.745,91.576c-3.518,3.653-20.2,18.792-27.28,14.551-1.966-1.811-1.342-4.181.844-6.06,5.675-4.876,16.943-7.646,26.436-8.49h0Zm81.518-9.223A18.233,18.233,0,0,1,491.93,80.1c-1.674,4.715-8.237,12.4-8.708,17.033a2.839,2.839,0,0,0,1.556,2.854c0.849,0.47.221-2.741,5.655-8.968,2.046-2.345,5.158-5.655,7.334-7.743-0.393,2.441-.828,4.21,1.712,5.568,0.571-.836.056,0.253,0.35-1.011a14.019,14.019,0,0,1,.471-2.2,28.549,28.549,0,0,1,2.09-3.674c0.354-.678-1.241-2.51-1.91-2.35-2.309.552-6.655,5.246-9.273,8.435,1.575-2.264,5.956-7.906,5.11-8.955a3.173,3.173,0,0,0-2.554-1.465c-2.011.424-4.275,2.951-5.613,4.2-0.568.529-.318,0.881,0.113,0.535h0Zm-6.142,9.606c-2.262,1.846-6.493,7.806-10.5,6.48-3.315-4.962,8.4-15.81,12.735-17.065-1.341,4.809-4.684,6.426-7.4,7.984-0.56.321-1.935,0.8-1.077,1.145,2.71,1.091,7.087-2.134,8.946-3.814,2.376-2.149,2.664-3.6,1.946-5.019-0.573-1.137-2.374-3.708-3.1-3.7-5.3.066-17.9,13.65-14.707,20.085a5.465,5.465,0,0,0,3.5,3.043c3.754,0.83,8.386-6.3,9.979-8.919,0.25-.411.054-0.537-0.333-0.221h0Zm-57.734,17.585c6.736-.345,41.6-1.51,62.735-3.78a91.6,91.6,0,0,0,11.817-1.648c3.53-.941,6.061-4.1,5.452-4.808-0.562-.66-7.385,1.943-12.316,2.948-1.82.371-3.71,0.72-5.656,1.048-19.668,3.318-45.11,4.53-63.193,5.365-1.86.086-1.777,0.681-1.065,0.846a13.136,13.136,0,0,0,2.226.029h0Zm4.666-23.419c0.153,0.186,1.8-1.176,2.759-1.632-1.291,2.87-4.1,7.21-5.825,10.154-1.616,2.751-5.571,8.316-1.363,10.5,0.784,0.434-.259-1.09,3.776-6.614,2.8-3.828,8.564-10.79,10.855-11.485-1.9,5.889-9.61,14.022-3.461,15.076,2.565-2.885,6.017-9.146,9.044-11.07-0.731,2.171-1.953,4.265-2.025,6.691-0.086,2.918,1.27,5.624,4.523,4.559-0.45-1.55-1.573-1.333-1.31-4.061,0.248-2.563,4.2-8.918,3.439-10.127a3.323,3.323,0,0,0-2.234-1.656c-1.232.019-4.242,3.172-7.116,7.218,1.722-3.082,4.791-7.167,4.538-8.527-0.2-1.092-2.2-2.171-3.22-2.1-2.29.168-8.373,7.138-10.567,9.959,1.839-3.091,5.981-8.111,5.171-9.045-0.595-.686-1.616-2.056-2.417-1.782a9.865,9.865,0,0,0-3.672,2.54c-0.4.432-1.153,1.084-.895,1.4h0Zm21.807,13.4c0.759-1.035,1.34-2.424,2.122-3.544,2.557-3.661,9.8-13.385,14.332-13.9-0.707,5.729-7.89,18.278-13.956,18.538-1.173-.2-0.457-3.129-0.922-2.722-3.387,5.841,5.755,8.215,14.033-4.128,1.251-1.864,5.663-9.2,4.626-11.374a5.152,5.152,0,0,0-2.2-2.715c-2.569-1.09-8.585,4.832-12.462,9.56,4.748-6.945,9.55-12.141,13.047-16.743,1.64-2.158,2.984-4.448,2.543-5.623a4.826,4.826,0,0,0-3.592-3.443c-1.483-.426-0.182,1.07-1.076,3a38.186,38.186,0,0,1-3.63,6.3c-2.33,3.4-4.66,7.145-5.663,8.681-2.08,3.185-7.482,11.912-9.45,16.433-0.991,2.276,1.184,3.132,2.251,1.678h0ZM412,90.325c0.746-.985,13.365-12.706,14.546-13.359a119.308,119.308,0,0,0-8.157,13.755,48.381,48.381,0,0,0-6.389-.4h0ZM399.945,76.659c0.452-.838-0.516-1.446.972-2.735,3.913-3.39,21.448-4.881,26.762-2.225-0.637.973-18.8,18.275-19.606,18.694-6.015.574-21.54,2.654-28.664,8.342-5.409,4.32-4.858,10.916,2.441,11.913,9.9,1.352,20.042-10.556,29.024-19.214a48.636,48.636,0,0,1,7.1.344c-0.824,2.244-3.761,8.524-3.055,12.3,0.348,1.857,1.492,3.167,4.035,3.208a5.447,5.447,0,0,1-1.483-3.491c-0.021-2.405,2.6-9.332,4.022-11.135,1.621,0.547,3.437,1.51,3.573.828,0.126-.629-1.5-1.133-3.1-1.872,2.124-3.877,11.809-14.472,11.123-17.24-2.823-8.284-25.108-6.741-30.362-4.945-4.523,1.546-6.2,4.3-2.788,7.233h0Z" transform="translate(-375.812 -63.344)"/>
</svg>
