<svg xmlns="http://www.w3.org/2000/svg" xmlns:xlink="http://www.w3.org/1999/xlink" width="49.938" height="50" viewBox="0 0 49.938 50">
  <defs>
    <style>
      .cls-1 {
        fill: #6d0fae;
        fill-rule: evenodd;
        filter: url(#filter);
      }
    </style>
    <filter id="filter" x="0" y="0" width="49.938" height="50" filterUnits="userSpaceOnUse">
      <feFlood result="flood" flood-color="#fff"/>
      <feComposite result="composite" operator="in" in2="SourceGraphic"/>
      <feBlend result="blend" in2="SourceGraphic"/>
    </filter>
  </defs>
  <path id="link" class="cls-1" d="M21.39,31.188a2.588,2.588,0,0,1-1.837-.762,12.223,12.223,0,0,1,0-17.254l9.591-9.6A12.194,12.194,0,1,1,46.38,20.827L42,25.215a2.6,2.6,0,0,1-3.673-3.677l4.384-4.388a7,7,0,1,0-9.89-9.9l-9.59,9.6a7.013,7.013,0,0,0,0,9.9,2.6,2.6,0,0,1-1.837,4.439h0ZM12.188,50A12.2,12.2,0,0,1,3.57,29.173l4.384-4.388a2.6,2.6,0,0,1,3.673,3.677L7.243,32.85a7,7,0,1,0,9.89,9.9l9.59-9.6a7.013,7.013,0,0,0,0-9.9A2.6,2.6,0,1,1,30.4,19.573a12.223,12.223,0,0,1,0,17.253l-9.59,9.6A12.1,12.1,0,0,1,12.188,50h0Z"/>
</svg>
