<svg xmlns="http://www.w3.org/2000/svg" width="12.906" height="12.906" viewBox="0 0 12.906 12.906">
  <defs>
    <style>
      .cls-1 {
        fill: #02baab;
        fill-rule: evenodd;
      }
    </style>
  </defs>
  <path class="cls-1" d="M380.52,218.479c-1.78-1.781-2.315-3.027-1.958-3.383l0.178-.178a2.486,2.486,0,0,0,.712-0.713,0.808,0.808,0,0,0,0-.89,3.508,3.508,0,0,0-.712-1.425,2.458,2.458,0,0,0-.535-0.712,0.859,0.859,0,0,0-.712-0.178h-0.534a0.551,0.551,0,0,0-.356.178,0.626,0.626,0,0,0-.357.178l-0.534.534-0.356.356c-0.356.535-.356,1.6,0.178,3.206a27.98,27.98,0,0,0,3.206,4.808,28,28,0,0,0,4.808,3.206c1.6,0.534,2.671.534,3.2,0.178l0.356-.356a0.967,0.967,0,0,0,.357-0.535l0.356-.356a0.551,0.551,0,0,0,.178-0.356v-0.534a0.861,0.861,0,0,0-.178-0.713,2.45,2.45,0,0,0-.713-0.534,1.886,1.886,0,0,0-1.068-.712,0.808,0.808,0,0,0-.89,0,0.781,0.781,0,0,0-.535.178l-0.712.712C383.548,220.794,382.3,220.26,380.52,218.479Z" transform="translate(-375.094 -211)"/>
</svg>
