<svg xmlns="http://www.w3.org/2000/svg" width="50" height="50" viewBox="0 0 50 50">
  <defs>
    <style>
      .cls-1 {
        fill: #825c48;
      }

      .cls-2 {
        fill: #fff;
        fill-rule: evenodd;
      }
    </style>
  </defs>
  <rect class="cls-1" width="50" height="50"/>
  <path id="instagram" class="cls-2" d="M33.811,36.5H16.978a2.8,2.8,0,0,1-2.805-2.8V16.887a2.8,2.8,0,0,1,2.805-2.8H33.811a2.8,2.8,0,0,1,2.806,2.8V33.7A2.8,2.8,0,0,1,33.811,36.5ZM25.394,20.95a4.347,4.347,0,0,0-3.944,2.523h0c-0.007.016-.012,0.032-0.019,0.048-0.041.092-.078,0.186-0.113,0.281-0.017.045-.035,0.09-0.05,0.136-0.032.1-.058,0.2-0.083,0.3-0.012.047-.026,0.093-0.036,0.141-0.023.106-.039,0.214-0.054,0.322-0.006.044-.015,0.086-0.02,0.131a4.349,4.349,0,1,0,8.646,0c0-.044-0.014-0.087-0.02-0.131-0.015-.109-0.031-0.217-0.054-0.322-0.01-.047-0.024-0.094-0.036-0.141-0.025-.1-0.051-0.2-0.084-0.3-0.015-.046-0.033-0.091-0.05-0.136-0.035-.1-0.072-0.189-0.113-0.281-0.007-.016-0.012-0.032-0.019-0.048h0A4.346,4.346,0,0,0,25.394,20.95Zm8.7-3.222a1.122,1.122,0,0,0-1.122-1.122H30.725A1.122,1.122,0,0,0,29.6,17.728v2.242a1.122,1.122,0,0,0,1.122,1.121h2.245a1.122,1.122,0,0,0,1.122-1.121V17.728Zm0,5.745H32.023a6.874,6.874,0,1,1-13.257,0H16.7v9.388a1.122,1.122,0,0,0,1.122,1.122h15.15a1.122,1.122,0,0,0,1.122-1.122V23.473Z"/>
</svg>
