<svg xmlns="http://www.w3.org/2000/svg" width="50" height="50" viewBox="0 0 50 50">
  <defs>
    <style>
      .cls-1 {
        fill: #00a0d1;
      }

      .cls-2 {
        fill: #fff;
        fill-rule: evenodd;
      }
    </style>
  </defs>
  <rect class="cls-1" width="50" height="50"/>
  <path id="twitter" class="cls-2" d="M29.6,14.735a5.145,5.145,0,0,1,4.044,1.68,8.038,8.038,0,0,0,2.621-.925l0.637-.364a5.361,5.361,0,0,1-1.66,2.512,2.45,2.45,0,0,1-.562.417v0.013a9.261,9.261,0,0,0,2.9-.82V17.26a8.548,8.548,0,0,1-1.735,2.083l-0.8.664a16.007,16.007,0,0,1-.237,3.436c-1.278,6.007-4.663,10.086-10.023,11.834a14.665,14.665,0,0,1-7.239.313,18.07,18.07,0,0,1-3.008-1.029,11.689,11.689,0,0,1-1.448-.781l-0.449-.286a7.948,7.948,0,0,0,1.635.065c0.5-.084,1-0.063,1.46-0.169a10.189,10.189,0,0,0,3.071-1.159,5.677,5.677,0,0,0,1.385-.951,4.146,4.146,0,0,1-1.523-.286,5.266,5.266,0,0,1-3.245-3.424,4.863,4.863,0,0,0,2.284-.1,3.653,3.653,0,0,1-1.673-.7,5.2,5.2,0,0,1-2.409-4.582l0.524,0.26a5.444,5.444,0,0,0,1.074.313,1.473,1.473,0,0,0,.7.065H15.9c-0.258-.314-0.677-0.523-0.936-0.86A5.65,5.65,0,0,1,13.815,17.1a6.387,6.387,0,0,1,.549-1.393l0.025,0.014a3.224,3.224,0,0,0,.462.559,9.592,9.592,0,0,0,1.523,1.523,14.806,14.806,0,0,0,6.253,3.164,9.4,9.4,0,0,0,2.3.313,5.461,5.461,0,0,1,2.921-6.106,5.992,5.992,0,0,1,1.136-.364Z"/>
</svg>
