<svg xmlns="http://www.w3.org/2000/svg" width="14" height="13" viewBox="0 0 14 13">
  <defs>
    <style>
      .cls-1 {
        fill: #02baab;
        fill-rule: evenodd;
      }
    </style>
  </defs>
  <path class="cls-1" d="M628,263.444a6.912,6.912,0,0,1-1.455,1.857v0.413a11.353,11.353,0,0,1-.182,2.476,14.531,14.531,0,0,1-1.09,2.476,21.543,21.543,0,0,1-1.637,2.27,9.464,9.464,0,0,1-2.363,1.444,6.761,6.761,0,0,1-2.91.62A7.679,7.679,0,0,1,614,273.349a1,1,0,0,0,.727.206,6.268,6.268,0,0,0,3.636-1.444,2.826,2.826,0,0,1-1.818-.619,4.633,4.633,0,0,1-.909-1.651h1.273a2.658,2.658,0,0,1-1.636-1.238,3.949,3.949,0,0,1-.728-2.064,3.864,3.864,0,0,0,1.455.413,2.277,2.277,0,0,1-1.091-1.238,3.283,3.283,0,0,1-.364-1.445,2.528,2.528,0,0,1,.546-1.65,7.746,7.746,0,0,0,2.545,2.476,9.553,9.553,0,0,0,3.273.825V265.3a3.045,3.045,0,0,1,.727-2.27A2.852,2.852,0,0,1,623.818,262a2.782,2.782,0,0,1,2,1.031,5.083,5.083,0,0,0,1.818-.825,2.6,2.6,0,0,1-1.273,1.857A2.706,2.706,0,0,0,628,263.444Z" transform="translate(-614 -262)"/>
</svg>
