<svg xmlns="http://www.w3.org/2000/svg" width="12.937" height="11.844" viewBox="0 0 12.937 11.844">
  <defs>
    <style>
      .cls-1 {
        fill: #02baab;
        fill-rule: evenodd;
      }
    </style>
  </defs>
  <path class="cls-1" d="M382.984,142.7a4.718,4.718,0,0,1-1.972-1.547,1.82,1.82,0,0,0-.74-0.714,1.5,1.5,0,0,0-.986-0.476c-0.74-.238-1.849.238-3.206,1.309l-1.356.476,2.589,9.994h1.48l-1.233-4.878c1.233-1.071,2.219-1.547,2.959-1.309a1.359,1.359,0,0,1,.863.357,0.6,0.6,0,0,1,.493.238,0.261,0.261,0,0,0,.247.238,1.354,1.354,0,0,0,.862.357,2.014,2.014,0,0,0,.987-0.357,15.271,15.271,0,0,0,3.7-3.926V142.1H387.3A7.611,7.611,0,0,1,382.984,142.7Z" transform="translate(-374.719 -139.906)"/>
</svg>
