<svg xmlns="http://www.w3.org/2000/svg" width="15" height="12" viewBox="0 0 15 12">
  <defs>
    <style>
      .cls-1 {
        fill: #ffae00;
        fill-rule: evenodd;
      }
    </style>
  </defs>
  <path id="checks" class="cls-1" d="M1109.81,898.647l-7.4,7.059c0,0.176-.19.176-0.37,0.176a0.713,0.713,0,0,1-.56-0.176L1097.59,902a0.869,0.869,0,0,1,0-1.059l0.93-.882a0.689,0.689,0,0,1,.55-0.177,0.71,0.71,0,0,1,.56.177l2.41,2.294,5.74-5.647a0.689,0.689,0,0,1,.55-0.177,0.71,0.71,0,0,1,.56.177l0.92,0.882A0.833,0.833,0,0,1,1109.81,898.647Zm-2.03,4.235v2.647a2.014,2.014,0,0,1-.74,1.765,2.445,2.445,0,0,1-1.85.706h-7.6a2.445,2.445,0,0,1-1.85-.706,2.014,2.014,0,0,1-.74-1.765V898.47a2.226,2.226,0,0,1,.74-1.764,2.441,2.441,0,0,1,1.85-.706h7.6a2.454,2.454,0,0,1,1.11.176v0.177c0.18,0.176,0,.176,0,0.176l-0.37.53h-8.34a1.421,1.421,0,0,0-.92.353,1.506,1.506,0,0,0-.56,1.058v7.059a1.244,1.244,0,0,0,.56,1.059,1.421,1.421,0,0,0,.92.353h7.6a1.421,1.421,0,0,0,.92-0.353,1.244,1.244,0,0,0,.56-1.059v-2.294l0.55-.529,0.19-.177h0.18A0.345,0.345,0,0,1,1107.78,902.882Z" transform="translate(-1095 -896)"/>
</svg>
