<svg xmlns="http://www.w3.org/2000/svg" width="50" height="50" viewBox="0 0 50 50">
  <defs>
    <style>
      .cls-1 {
        fill: #a30834;
      }

      .cls-2 {
        fill: #fff;
        fill-rule: evenodd;
      }
    </style>
  </defs>
  <rect class="cls-1" width="50" height="50"/>
  <path id="pinterest" class="cls-2" d="M25.107,12.245c4.662-.07,7.581,1.816,8.955,5.125a8.853,8.853,0,0,1,.574,4.767c-0.145.666-.186,1.36-0.383,1.987A12,12,0,0,1,32.646,27.5a6.969,6.969,0,0,1-4.133,2.661,4.653,4.653,0,0,1-3.865-.834,1.782,1.782,0,0,1-.727-0.835H23.883a10.63,10.63,0,0,1-.5,1.986c-0.251.843-.3,1.715-0.612,2.5a16,16,0,0,1-1.225,2.423c-0.239.392-.9,1.733-1.378,1.748a0.54,0.54,0,0,1-.076-0.318,3.469,3.469,0,0,1-.115-0.993,6.094,6.094,0,0,1-.077-1.986V33.022c0.123-.572.119-1.16,0.268-1.708,0.325-1.194.506-2.459,0.842-3.695,0.323-1.188.619-2.486,0.88-3.694a5.358,5.358,0,0,0-.344-1.351,5.459,5.459,0,0,1,.229-2.9c0.357-.874,1.4-2.21,2.755-1.867a2.262,2.262,0,0,1,1.416,2.94c-0.383,1.564-.88,2.964-1.225,4.529a1.99,1.99,0,0,0,.153,1.073,2.187,2.187,0,0,0,2.6,1.391c1.975-.5,2.849-2.283,3.444-4.212,0.161-.521.142-1.014,0.268-1.589a8.074,8.074,0,0,0-.229-3.973,5.146,5.146,0,0,0-3.33-3.02l-1.3-.238a6.713,6.713,0,0,0-2.6.238,6.366,6.366,0,0,0-4.4,3.934,7.065,7.065,0,0,0-.5,2.423l-0.038.357a7.136,7.136,0,0,0,.536,2.145,3.652,3.652,0,0,1,.65.993,2.141,2.141,0,0,1-.191.794,4.407,4.407,0,0,1-.192.875c-0.249.452-.926,0.112-1.224-0.08-1.548-1-2.824-3.886-2.1-6.674a10.116,10.116,0,0,1,.268-1.192A9.973,9.973,0,0,1,20.9,13.4a10.217,10.217,0,0,1,2.717-.954Z"/>
</svg>
