<svg xmlns="http://www.w3.org/2000/svg" width="13" height="11" viewBox="0 0 13 11">
  <defs>
    <style>
      .cls-1 {
        fill: #c3c3c3;
        fill-rule: evenodd;
      }
    </style>
  </defs>
  <path class="cls-1" d="M1095,436.047V435.7a1.453,1.453,0,0,1,.35-0.523,0.653,0.653,0,0,1,.53-0.175h11.07a0.633,0.633,0,0,1,.52.175,0.58,0.58,0,0,1,.35.523c0.18,0,.18.175,0.18,0.349a1.362,1.362,0,0,1-.35.7l-3.69,3.666,3.69,3.842a0.921,0.921,0,0,1,.35.7,0.344,0.344,0,0,1-.18.349,0.9,0.9,0,0,1-.35.524c-0.17,0-.35.175-0.52,0.175h-11.07c-0.18,0-.35-0.175-0.53-0.175-0.17-.175-0.17-0.349-0.35-0.524v-9.254Zm1.05,0v8.731h10.72l-3.51-3.492-0.71-.874,0.71-.7,3.51-3.667h-10.72Z" transform="translate(-1095 -435)"/>
</svg>
